<svg width="171" height="39" viewBox="0 0 901 210" version="1.1" xmlns="http://www.w3.org/2000/svg" xmlns:xlink="http://www.w3.org/1999/xlink"><title>编组 2</title><g id="页面-1" stroke="none" stroke-width="1" fill="none" fill-rule="evenodd"><g id="编组-2"><g id="default" transform="translate(241.000000, 76.000000)" fill="#319795" fill-rule="nonzero"><g id="feec472e-46b3-4cdd-8624-6ccff87e5c9f"><path d="M66.78812,14.6528998 L94.1702388,14.6528998 L94.1702388,113.686292 L71.1328843,113.686292 L27.4831598,60.9358524 L27.4831598,113.686292 L8.10983225e-15,113.686292 L8.10983225e-15,14.6528998 L23.0373546,14.6528998 L66.78812,67.4033392 L66.78812,14.6528998 Z M151.258421,115 L151.258421,115 C143.040417,115 135.630741,113.282074 129.029394,109.846222 L129.029394,109.846222 L129.029394,109.846222 C122.428047,106.477739 117.241274,101.761863 113.469076,95.698594 L113.469076,95.698594 L113.469076,95.698594 C109.764238,89.7026948 107.911819,82.8646749 107.911819,75.1845343 L107.911819,75.1845343 L107.911819,75.1845343 C107.911819,67.639133 109.764238,60.8684827 113.469076,54.8725835 L113.469076,54.8725835 L113.469076,54.8725835 C117.241274,48.8093146 122.394367,44.0934388 128.928353,40.7249561 L128.928353,40.7249561 L128.928353,40.7249561 C135.46234,37.423843 142.905695,35.7732865 151.258421,35.7732865 L151.258421,35.7732865 L151.258421,35.7732865 C159.543785,35.7732865 166.987141,37.423843 173.588488,40.7249561 L173.588488,40.7249561 L173.588488,40.7249561 C180.189835,44.0934388 185.309247,48.7756297 188.946724,54.771529 L188.946724,54.771529 L188.946724,54.771529 C192.651562,60.7674282 194.503981,67.5717633 194.503981,75.1845343 L194.503981,75.1845343 L194.503981,75.1845343 C194.503981,82.8646749 192.651562,89.7026948 188.946724,95.698594 L188.946724,95.698594 L188.946724,95.698594 C185.309247,101.761863 180.189835,106.477739 173.588488,109.846222 L173.588488,109.846222 L173.588488,109.846222 C166.987141,113.282074 159.543785,115 151.258421,115 L151.258421,115 Z M151.258421,93.5764499 L151.258421,93.5764499 C155.973669,93.5764499 159.813228,91.9595782 162.777098,88.7258348 L162.777098,88.7258348 L162.777098,88.7258348 C165.808329,85.4920914 167.323944,80.9783245 167.323944,75.1845343 L167.323944,75.1845343 L167.323944,75.1845343 C167.323944,69.5254833 165.808329,65.1127709 162.777098,61.9463972 L162.777098,61.9463972 L162.777098,61.9463972 C159.813228,58.7126538 155.973669,57.0957821 151.258421,57.0957821 L151.258421,57.0957821 L151.258421,57.0957821 C146.543172,57.0957821 142.669933,58.7126538 139.638702,61.9463972 L139.638702,61.9463972 L139.638702,61.9463972 C136.607471,65.1127709 135.091856,69.5254833 135.091856,75.1845343 L135.091856,75.1845343 L135.091856,75.1845343 C135.091856,80.9783245 136.607471,85.4920914 139.638702,88.7258348 L139.638702,88.7258348 L139.638702,88.7258348 C142.669933,91.9595782 146.543172,93.5764499 151.258421,93.5764499 L151.258421,93.5764499 Z M310.398041,36.9859402 L333.940601,36.9859402 L306.659523,113.686292 L280.691978,113.686292 L266.243111,71.9507908 L251.187998,113.686292 L225.220454,113.686292 L197.939376,36.9859402 L223.401715,36.9859402 L239.063075,83.4710017 L255.33068,36.9859402 L278.266994,36.9859402 L294.130435,83.8752197 L310.398041,36.9859402 Z M343.438457,113.686292 L343.438457,14.6528998 L371.426822,14.6528998 L371.426822,91.4543058 L418.714024,91.4543058 L418.714024,113.686292 L343.438457,113.686292 Z M428.515003,113.686292 L428.515003,36.9859402 L455.391917,36.9859402 L455.391917,113.686292 L428.515003,113.686292 Z M441.95346,28.4973638 L441.95346,28.4973638 C437.03613,28.4973638 433.06185,27.1499707 430.030619,24.4551845 L430.030619,24.4551845 L430.030619,24.4551845 C426.999388,21.6930287 425.483773,18.2908611 425.483773,14.2486819 L425.483773,14.2486819 L425.483773,14.2486819 C425.483773,10.2065026 426.999388,6.80433509 430.030619,4.04217926 L430.030619,4.04217926 L430.030619,4.04217926 C433.06185,1.34739309 437.03613,-1.72084569e-15 441.95346,-1.72084569e-15 L441.95346,-1.72084569e-15 L441.95346,-1.72084569e-15 C446.80343,-1.72084569e-15 450.74403,1.28002343 453.775261,3.8400703 L453.775261,3.8400703 L453.775261,3.8400703 C456.806492,6.46748682 458.322107,9.80228471 458.322107,13.844464 L458.322107,13.844464 L458.322107,13.844464 C458.322107,18.0887522 456.806492,21.5919742 453.775261,24.35413 L453.775261,24.35413 L453.775261,24.35413 C450.74403,27.1162859 446.80343,28.4973638 441.95346,28.4973638 L441.95346,28.4973638 Z M522.685242,35.7732865 L522.685242,35.7732865 C532.183099,35.7732865 539.828537,38.6028119 545.621556,44.2618629 L545.621556,44.2618629 L545.621556,44.2618629 C551.481936,49.9209139 554.412125,58.4431751 554.412125,69.8286467 L554.412125,69.8286467 L554.412125,113.686292 L527.535212,113.686292 L527.535212,74.2750439 L527.535212,74.2750439 C527.535212,63.7653778 523.325169,58.5105448 514.905083,58.5105448 L514.905083,58.5105448 L514.905083,58.5105448 C510.257196,58.5105448 506.552358,60.026362 503.79057,63.0579965 L503.79057,63.0579965 L503.79057,63.0579965 C501.028782,66.0896309 499.647888,70.6033978 499.647888,76.599297 L499.647888,76.599297 L499.647888,113.686292 L472.770974,113.686292 L472.770974,36.9859402 L498.334354,36.9859402 L498.334354,45.3734622 L498.334354,45.3734622 C501.365585,42.2744581 504.969382,39.8828354 509.145744,38.198594 L509.145744,38.198594 L509.145744,38.198594 C513.254746,36.5817223 517.767912,35.7732865 522.685242,35.7732865 L522.685242,35.7732865 Z M627.464789,113.686292 L606.044091,86.8057996 L598.06185,94.8901582 L598.06185,113.686292 L571.184936,113.686292 L571.184936,8.69068541 L598.06185,8.69068541 L598.06185,63.7653778 L625.54501,36.9859402 L657.372934,36.9859402 L625.54501,69.8286467 L660,113.686292 L627.464789,113.686292 Z" id="形状"></path></g></g><g id="编组"><path d="M105,0 C162.989899,0 210,47.0101013 210,105 C210,162.989899 162.989899,210 105,210 C47.0101013,210 0,162.989899 0,105 C0,47.0101013 47.0101013,0 105,0 Z" id="椭圆形-2" fill="#319795"></path><g id="1" transform="translate(46.000000, 100.000000)" fill="#FFFFFF"><path d="M48.9796423,2.55249262 L39.4699218,12.0622949 C34.7233846,11.2142935 29.6600287,12.5718709 25.9278904,16.1350271 L25.6641662,16.3927184 L16.3898106,25.6670739 C10.2898729,31.7670117 10.2898729,41.6569648 16.3898106,47.7569025 C22.4026064,53.7696983 32.0979049,53.8555954 38.215915,48.0145938 L38.4796393,47.7569025 L47.7539948,38.482547 C51.5681317,34.6684101 52.9973852,29.3724967 52.0417553,24.4478415 L61.4541489,15.0343185 C66.1065298,24.821253 64.3824631,36.8835836 56.281949,44.9840977 L44.9840977,56.281949 C34.6933631,66.5726837 18.0087856,66.5726837 7.71805099,56.281949 C-2.57268366,45.9912144 -2.57268366,29.3066369 7.71805099,19.0159023 L19.0159023,7.71805099 C27.1202685,-0.386315279 39.1902203,-2.10816807 48.9796423,2.55249262 Z" id="形状结合"></path></g><g id="2" transform="translate(101.000000, 46.000000)" fill="#FFFFFF"><path d="M56.281949,7.71805099 C66.5726837,18.0087856 66.5726837,34.6933631 56.281949,44.9840977 L44.9840977,56.281949 C36.8838588,64.382188 24.8220724,66.1064126 15.0353158,61.454623 L24.4451649,52.0447079 C29.2572403,52.9784165 34.4237643,51.6350452 38.215915,48.0145938 L38.4796393,47.7569025 L47.7539948,38.482547 C53.8539325,32.3826093 53.8539325,22.4926561 47.7539948,16.3927184 C41.741199,10.3799226 32.0459005,10.2940255 25.9278904,16.1350271 L25.6641662,16.3927184 L16.3898106,25.6670739 C12.6344559,29.4224287 11.191041,34.6142387 12.059566,39.4738304 L2.55249262,48.9796423 C-2.10816807,39.1902203 -0.386315279,27.1202685 7.71805099,19.0159023 L19.0159023,7.71805099 C29.3066369,-2.57268366 45.9912144,-2.57268366 56.281949,7.71805099 Z" id="形状结合"></path></g><path d="M105.292693,72.8197147 C108.983265,72.8197147 111.975065,75.8115145 111.975065,79.5020865 L111.975065,130.097187 C111.975065,133.787759 108.983265,136.779559 105.292693,136.779559 C101.602121,136.779559 98.6103213,133.787759 98.6103213,130.097187 L98.6103213,79.5020865 C98.6103213,75.8115145 101.602121,72.8197147 105.292693,72.8197147 Z" id="m" fill="#FFFFFF" transform="translate(105.292693, 104.799637) rotate(45.000000) translate(-105.292693, -104.799637) "></path></g></g></g></svg>